<svg width="14" height="14" viewBox="0 0 14 14" fill="none" xmlns="http://www.w3.org/2000/svg">
<mask id="path-1-outside-1_701_13" maskUnits="userSpaceOnUse" x="-3.41422" y="-3.41421" width="21.2132" height="21.2132" fill="black">
<rect fill="white" x="-3.41422" y="-3.41421" width="21.2132" height="21.2132"/>
<path fill-rule="evenodd" clip-rule="evenodd" d="M12.1421 2.94975L11.435 2.24264L7.19238 6.48528L2.94974 2.24264L2.24264 2.94975L6.48528 7.19239L2.24264 11.435L2.94974 12.1421L7.19238 7.89949L11.435 12.1421L12.1421 11.435L7.89949 7.19239L12.1421 2.94975Z"/>
</mask>
<path fill-rule="evenodd" clip-rule="evenodd" d="M12.1421 2.94975L11.435 2.24264L7.19238 6.48528L2.94974 2.24264L2.24264 2.94975L6.48528 7.19239L2.24264 11.435L2.94974 12.1421L7.19238 7.89949L11.435 12.1421L12.1421 11.435L7.89949 7.19239L12.1421 2.94975Z" fill="black"/>
<path d="M11.435 2.24264L12.1421 1.53553L11.435 0.828427L10.7279 1.53553L11.435 2.24264ZM12.1421 2.94975L12.8492 3.65685L13.5563 2.94975L12.8492 2.24264L12.1421 2.94975ZM7.19238 6.48528L6.48528 7.19239L7.19238 7.89949L7.89949 7.19239L7.19238 6.48528ZM2.94974 2.24264L3.65685 1.53553L2.94974 0.828427L2.24264 1.53553L2.94974 2.24264ZM2.24264 2.94975L1.53553 2.24264L0.828422 2.94975L1.53553 3.65685L2.24264 2.94975ZM6.48528 7.19239L7.19238 7.89949L7.89949 7.19239L7.19238 6.48528L6.48528 7.19239ZM2.24264 11.435L1.53553 10.7279L0.828422 11.435L1.53553 12.1421L2.24264 11.435ZM2.94974 12.1421L2.24264 12.8492L2.94974 13.5563L3.65685 12.8492L2.94974 12.1421ZM7.19238 7.89949L7.89949 7.19239L7.19238 6.48528L6.48528 7.19239L7.19238 7.89949ZM11.435 12.1421L10.7279 12.8492L11.435 13.5563L12.1421 12.8492L11.435 12.1421ZM12.1421 11.435L12.8492 12.1421L13.5563 11.435L12.8492 10.7279L12.1421 11.435ZM7.89949 7.19239L7.19238 6.48528L6.48528 7.19239L7.19238 7.89949L7.89949 7.19239ZM10.7279 2.94975L11.435 3.65685L12.8492 2.24264L12.1421 1.53553L10.7279 2.94975ZM7.89949 7.19239L12.1421 2.94975L10.7279 1.53553L6.48528 5.77817L7.89949 7.19239ZM2.24264 2.94975L6.48528 7.19239L7.89949 5.77817L3.65685 1.53553L2.24264 2.94975ZM2.94974 3.65685L3.65685 2.94975L2.24264 1.53553L1.53553 2.24264L2.94974 3.65685ZM7.19238 6.48528L2.94974 2.24264L1.53553 3.65685L5.77817 7.89949L7.19238 6.48528ZM2.94974 12.1421L7.19238 7.89949L5.77817 6.48528L1.53553 10.7279L2.94974 12.1421ZM3.65685 11.435L2.94974 10.7279L1.53553 12.1421L2.24264 12.8492L3.65685 11.435ZM6.48528 7.19239L2.24264 11.435L3.65685 12.8492L7.89949 8.6066L6.48528 7.19239ZM12.1421 11.435L7.89949 7.19239L6.48528 8.6066L10.7279 12.8492L12.1421 11.435ZM11.435 10.7279L10.7279 11.435L12.1421 12.8492L12.8492 12.1421L11.435 10.7279ZM7.19238 7.89949L11.435 12.1421L12.8492 10.7279L8.6066 6.48528L7.19238 7.89949ZM11.435 2.24264L7.19238 6.48528L8.6066 7.89949L12.8492 3.65685L11.435 2.24264Z" fill="black" mask="url(#path-1-outside-1_701_13)"/>
</svg>
